<?xml version="1.0" standalone="no"?>
<!DOCTYPE svg PUBLIC "-//W3C//DTD SVG 20010904//EN"
 "http://www.w3.org/TR/2001/REC-SVG-20010904/DTD/svg10.dtd">
<svg version="1.0" xmlns="http://www.w3.org/2000/svg"
 width="825.000000pt" height="575.000000pt" viewBox="0 0 825.000000 575.000000"
 preserveAspectRatio="xMidYMid meet">

<g transform="translate(0.000000,575.000000) scale(0.100000,-0.100000)"
fill="#000000" stroke="none">
<path d="M1822 5727 c-12 -12 -28 -42 -37 -66 -14 -40 -13 -46 6 -91 23 -55
22 -59 -36 -122 -42 -45 -53 -60 -110 -145 -42 -62 -62 -71 -107 -43 -57 35
-121 22 -151 -30 -19 -31 -22 -106 -7 -130 7 -11 10 -1 10 36 0 36 6 56 20 72
42 44 116 39 153 -10 20 -26 20 -33 9 -137 -17 -166 -58 -277 -153 -421 -81
-122 -198 -243 -269 -280 -104 -53 -179 -25 -233 88 -17 37 -22 65 -22 133 0
75 4 93 29 143 35 70 86 113 142 122 45 6 104 -16 104 -40 0 -7 7 -19 15 -26
8 -7 15 -22 15 -33 0 -11 3 -18 6 -14 14 14 -9 79 -40 112 -29 30 -40 35 -79
35 -25 0 -57 -4 -70 -9 -47 -18 -100 -75 -129 -139 -25 -54 -29 -77 -29 -147
0 -46 4 -92 9 -102 41 -82 62 -130 62 -143 0 -8 -12 -28 -26 -45 -41 -46 -78
-105 -71 -112 8 -7 57 24 57 37 0 5 20 21 43 35 50 29 117 34 140 10 36 -35
32 -124 -6 -150 -12 -9 -44 -31 -72 -50 -27 -19 -57 -38 -65 -42 -8 -4 -17
-10 -20 -14 -3 -4 -30 -27 -61 -51 -63 -49 -128 -119 -92 -100 11 6 23 9 25 6
3 -2 20 9 38 26 18 16 36 30 41 30 5 0 19 11 31 25 12 14 26 25 31 25 8 0 37
21 137 100 39 30 62 8 77 -71 11 -59 34 -180 100 -519 13 -69 27 -145 32 -170
5 -25 14 -70 20 -100 7 -30 17 -80 23 -110 5 -30 16 -84 23 -120 7 -36 18 -90
24 -120 5 -30 15 -80 21 -110 7 -30 14 -75 17 -100 3 -25 9 -49 14 -54 5 -6 9
-24 9 -41 0 -18 7 -54 15 -81 8 -27 15 -66 15 -87 0 -21 5 -47 10 -57 12 -22
31 -128 33 -185 l2 -40 -69 -5 c-63 -5 -70 -8 -97 -40 -26 -31 -29 -41 -29
-109 0 -71 2 -76 41 -128 34 -45 45 -54 67 -51 16 2 28 10 30 21 3 13 -4 17
-31 17 -44 0 -73 32 -80 90 -8 56 10 107 45 133 37 28 106 17 154 -26 58 -50
113 -200 114 -307 0 -19 5 -53 11 -75 15 -58 61 -165 70 -165 4 0 11 17 14 38
3 20 8 46 11 57 2 11 9 130 14 264 10 260 9 271 -36 271 -39 0 -47 33 -51 200
-2 88 -10 179 -18 210 -14 54 -34 257 -55 555 -6 83 -15 195 -21 250 -15 153
-29 343 -39 530 -5 94 -12 197 -16 230 -8 82 0 88 113 84 112 -5 296 -5 441 0
63 2 118 -1 123 -6 6 -6 4 -64 -5 -154 -8 -79 -17 -191 -20 -249 -4 -58 -11
-157 -16 -220 -5 -63 -14 -221 -20 -350 -6 -129 -13 -253 -15 -275 -23 -229
-26 -277 -21 -290 14 -37 94 -5 83 34 -6 23 -2 84 27 426 21 251 43 536 63
830 11 172 20 245 30 256 8 9 64 29 125 44 134 32 142 28 118 -70 -6 -22 -21
-103 -35 -180 -13 -77 -36 -203 -50 -280 -14 -77 -30 -165 -35 -195 -5 -30
-17 -98 -26 -150 -8 -52 -20 -120 -24 -150 -5 -30 -16 -98 -25 -150 -9 -52
-20 -120 -24 -152 -5 -31 -12 -62 -17 -70 -5 -7 -12 -38 -16 -68 -4 -30 -10
-70 -14 -87 -5 -29 -4 -33 14 -33 24 0 46 25 39 44 -5 13 12 121 58 371 9 50
20 113 25 140 4 28 15 91 24 140 23 124 33 180 45 254 5 35 15 85 20 110 6 25
23 109 37 186 14 77 32 170 40 207 8 37 14 81 14 97 0 70 58 132 108 117 11
-4 51 -27 88 -51 38 -25 72 -45 76 -45 27 0 -18 77 -67 114 -42 33 -43 45 -7
105 52 86 64 168 40 283 -10 51 -10 60 4 74 15 16 152 46 288 64 36 4 117 15
180 24 253 33 406 41 825 40 254 0 465 -5 535 -12 164 -18 442 -52 460 -57 8
-2 83 -16 165 -30 83 -14 166 -30 185 -35 19 -5 85 -21 145 -36 376 -90 745
-220 1055 -373 140 -68 166 -82 275 -146 74 -42 238 -148 252 -161 7 -7 29
-22 50 -35 33 -19 62 -42 166 -129 10 -8 20 -13 24 -12 3 2 10 -2 14 -10 7
-10 9 -10 9 0 0 6 5 12 11 12 5 0 8 -4 4 -9 -3 -6 3 -15 12 -21 17 -11 16 -11
-1 -5 -19 6 -19 5 -1 -15 20 -22 45 -27 45 -8 0 19 13 -1 16 -25 1 -12 3 -25
3 -28 3 -19 27 -14 29 4 1 17 -1 19 -8 7 -8 -13 -10 -12 -10 3 0 9 5 17 11 17
17 0 -89 100 -201 190 -268 213 -614 409 -980 553 -330 129 -612 211 -1030
296 -440 90 -1049 133 -1565 111 -322 -14 -534 -40 -973 -117 -26 -4 -43 1
-85 27 -39 25 -67 34 -110 38 -56 4 -58 3 -92 -32 -19 -21 -35 -45 -35 -55 0
-32 -39 -70 -78 -77 -20 -4 -60 -15 -89 -25 -70 -24 -102 -14 -129 37 -68 129
-102 333 -73 438 34 122 172 110 190 -16 l6 -43 1 47 c2 43 -2 52 -41 93 -51
52 -76 56 -129 20 -61 -41 -84 -35 -115 33 -15 31 -55 92 -90 134 -67 82 -73
102 -48 161 22 53 19 91 -11 126 -31 37 -53 39 -82 8z m865 -898 c33 -28 6
-53 -74 -68 -57 -11 -73 -6 -73 24 0 53 99 83 147 44z m108 -105 c23 -25 25
-35 25 -128 0 -97 -2 -104 -32 -156 -38 -63 -87 -100 -134 -100 -69 0 -235
110 -317 210 -61 74 -51 91 69 115 43 9 93 21 109 26 17 6 63 19 104 29 40 10
76 21 79 24 3 3 21 6 39 6 24 0 41 -8 58 -26z m-1401 -574 c5 -5 10 -38 12
-72 1 -35 9 -130 19 -213 9 -82 21 -188 25 -235 21 -208 40 -388 44 -420 9
-61 25 -218 51 -483 14 -142 32 -304 40 -360 20 -137 20 -216 0 -223 -30 -12
-52 29 -83 161 -6 22 -16 63 -22 90 -7 28 -16 70 -20 95 -4 25 -15 86 -25 135
-28 153 -32 174 -69 395 -20 118 -38 226 -41 240 -3 14 -14 77 -25 140 -11 63
-34 183 -50 265 -97 497 -95 473 -40 492 39 13 169 8 184 -7z"/>
<path d="M1402 5058 c19 -28 73 -37 81 -14 5 13 -2 16 -33 16 -22 0 -40 5 -40
10 0 6 -5 10 -11 10 -7 0 -6 -8 3 -22z"/>
<path d="M2250 5050 c0 -5 7 -10 15 -10 8 0 15 5 15 10 0 6 -7 10 -15 10 -8 0
-15 -4 -15 -10z"/>
<path d="M723 3825 c0 -7 6 -11 14 -8 7 3 13 6 13 8 0 2 -6 5 -13 8 -8 3 -14
-1 -14 -8z"/>
<path d="M665 3790 c-8 -13 5 -13 25 0 13 8 13 10 -2 10 -9 0 -20 -4 -23 -10z"/>
<path d="M5643 3162 c-7 -4 -12 -37 -13 -82 -2 -112 -1 -136 8 -123 11 18 90
34 96 19 2 -6 5 0 5 14 1 23 9 32 67 75 12 8 15 20 9 43 -7 35 -9 37 -47 46
l-27 6 22 -41 22 -41 -24 -19 c-70 -57 -164 28 -101 91 20 20 8 28 -17 12z"/>
<path d="M2684 3149 c-9 -15 -2 -18 20 -9 17 6 18 7 3 13 -9 3 -19 2 -23 -4z"/>
<path d="M3837 3126 c10 -12 19 -23 20 -25 1 -2 14 6 28 17 30 24 22 32 -29
30 -36 -1 -36 -2 -19 -22z"/>
<path d="M3262 3088 c-14 -14 -15 -37 -3 -57 8 -12 12 -12 25 -2 19 16 20 31
3 54 -10 14 -15 15 -25 5z"/>
<path d="M4542 3072 c-19 -20 -21 -26 -10 -33 21 -14 44 -10 61 9 14 16 13 18
-6 32 -20 14 -24 14 -45 -8z"/>
<path d="M6790 3066 c0 -34 23 -51 49 -34 26 16 27 34 2 48 -33 17 -51 12 -51
-14z"/>
<path d="M4260 3073 c0 -7 -7 -10 -15 -7 -22 9 -18 -3 4 -16 23 -12 34 -1 20
20 -5 10 -9 11 -9 3z"/>
<path d="M7200 3058 c-15 -12 -34 -18 -52 -16 -19 3 -28 0 -28 -9 0 -24 -39
-90 -57 -97 -11 -4 -22 -1 -29 8 -6 9 -13 16 -16 16 -10 0 5 -55 19 -68 7 -7
13 -21 13 -30 1 -9 9 1 20 24 23 50 44 68 69 61 19 -5 41 26 41 57 0 18 52 36
79 29 38 -10 20 25 -19 39 -9 3 -27 -3 -40 -14z"/>
<path d="M4400 3055 c-11 -13 -8 -15 19 -15 33 0 42 14 15 24 -21 8 -20 8 -34
-9z"/>
<path d="M4992 3058 c3 -7 13 -15 24 -17 16 -3 17 -1 5 13 -16 19 -34 21 -29
4z"/>
<path d="M5925 3060 c-3 -5 -5 -10 -3 -11 2 0 15 -3 30 -5 22 -4 26 -1 22 11
-7 17 -39 20 -49 5z"/>
<path d="M6121 3056 c-10 -11 -4 -15 29 -18 22 -2 40 -3 40 -1 0 1 -7 9 -16
17 -19 20 -38 20 -53 2z"/>
<path d="M6295 3060 c-11 -4 -27 -19 -34 -33 -12 -22 -12 -28 1 -40 12 -13 16
-11 27 14 7 15 21 31 32 34 10 4 19 10 19 15 0 13 -23 18 -45 10z"/>
<path d="M6422 3055 c-13 -7 -29 -18 -35 -25 -9 -10 -9 -11 2 -5 12 7 13 0 8
-38 -7 -50 2 -64 30 -48 10 5 34 11 53 12 35 4 59 23 60 47 0 6 -7 12 -15 12
-8 0 -15 -5 -15 -11 0 -17 -32 -38 -56 -39 -28 0 -46 23 -42 52 2 19 10 24 41
26 32 3 36 6 26 18 -14 17 -26 17 -57 -1z"/>
<path d="M6646 3061 c-3 -5 5 -12 19 -15 19 -5 25 -13 25 -35 0 -23 -6 -31
-30 -40 -38 -13 -39 -31 -1 -31 16 0 37 -7 45 -16 15 -14 16 -13 17 8 3 71 -4
114 -19 126 -18 14 -48 16 -56 3z"/>
<path d="M3376 3051 c-7 -11 3 -41 13 -41 15 1 42 30 36 39 -8 13 -42 14 -49
2z"/>
<path d="M4798 3053 c7 -3 16 -2 19 1 4 3 -2 6 -13 5 -11 0 -14 -3 -6 -6z"/>
<path d="M6906 3052 c-5 -5 24 -62 31 -62 4 0 14 7 24 15 15 15 17 14 23 -10
4 -14 11 -25 16 -25 5 0 2 20 -7 44 -15 40 -19 44 -50 43 -19 -1 -35 -3 -37
-5z"/>
<path d="M3055 3029 c-10 -29 -3 -31 18 -3 15 20 15 24 3 24 -8 0 -18 -9 -21
-21z"/>
<path d="M3510 3039 c0 -5 5 -7 10 -4 6 3 10 8 10 11 0 2 -4 4 -10 4 -5 0 -10
-5 -10 -11z"/>
<path d="M4198 3043 c7 -3 16 -2 19 1 4 3 -2 6 -13 5 -11 0 -14 -3 -6 -6z"/>
<path d="M2963 3003 c-7 -3 -13 -11 -13 -18 0 -7 -11 -16 -25 -19 -14 -4 -23
-11 -20 -16 9 -14 73 -9 79 7 8 19 -7 51 -21 46z"/>
<path d="M5991 2989 c-18 -15 -36 -19 -65 -17 -38 3 -41 1 -44 -24 -3 -26 -3
-26 32 -14 20 7 62 11 95 9 56 -3 59 -2 64 23 3 20 -1 27 -20 35 -32 12 -34
12 -62 -12z"/>
<path d="M2847 2978 c-4 -14 -21 -39 -39 -57 -17 -17 -30 -32 -27 -35 2 -2 21
-6 42 -10 35 -7 37 -5 37 19 0 14 7 28 15 31 20 8 19 24 -4 53 l-18 24 -6 -25z"/>
<path d="M3622 2963 c0 -24 4 -43 9 -43 11 0 11 38 -1 65 -6 15 -8 9 -8 -22z"/>
<path d="M4680 2986 c0 -7 7 -19 15 -26 12 -10 15 -10 15 4 0 9 -5 16 -11 16
-5 0 -7 5 -4 10 3 6 1 10 -4 10 -6 0 -11 -6 -11 -14z"/>
<path d="M4727 2973 c-4 -3 -7 -17 -7 -31 0 -19 -4 -23 -20 -19 -16 4 -20 0
-20 -18 0 -21 2 -22 24 -12 14 7 23 13 21 15 -1 2 1 19 5 38 8 35 8 38 -3 27z"/>
<path d="M6923 2945 c0 -22 2 -30 4 -17 2 12 2 30 0 40 -3 9 -5 -1 -4 -23z"/>
<path d="M3481 2944 c0 -11 3 -14 6 -6 3 7 2 16 -1 19 -3 4 -6 -2 -5 -13z"/>
<path d="M5281 2928 c0 -13 4 -32 9 -43 7 -19 9 -18 19 7 6 15 8 35 5 43 -9
23 -34 18 -33 -7z"/>
<path d="M6572 2895 c-11 -12 -10 -15 3 -15 8 0 15 7 15 15 0 18 -2 18 -18 0z"/>
<path d="M5781 2895 c0 -5 6 -21 14 -35 8 -14 14 -37 15 -52 0 -24 26 -86 42
-98 9 -7 118 -3 125 4 4 3 0 6 -9 6 -19 0 -48 32 -48 53 0 8 11 24 25 35 24
19 36 40 15 27 -5 -3 -23 -8 -39 -10 -25 -3 -32 2 -45 28 -9 18 -16 26 -16 19
0 -17 -51 -4 -67 17 -7 9 -12 12 -12 6z"/>
<path d="M3361 2854 c0 -11 3 -14 6 -6 3 7 2 16 -1 19 -3 4 -6 -2 -5 -13z"/>
<path d="M3595 2850 c-10 -11 -21 -17 -26 -15 -4 3 -10 1 -13 -4 -4 -5 2 -8
11 -6 10 2 23 4 29 4 12 1 28 30 21 37 -2 2 -12 -5 -22 -16z"/>
<path d="M6706 2853 c-6 -14 -5 -15 5 -6 7 7 10 15 7 18 -3 3 -9 -2 -12 -12z"/>
<path d="M2725 2840 c-3 -6 1 -7 9 -4 18 7 21 14 7 14 -6 0 -13 -4 -16 -10z"/>
<path d="M5015 2840 c-19 -8 -19 -9 3 -9 12 -1 22 4 22 9 0 6 -1 10 -2 9 -2 0
-12 -4 -23 -9z"/>
<path d="M6147 2843 c-4 -3 -7 -10 -7 -14 0 -9 39 1 46 12 6 10 -29 12 -39 2z"/>
<path d="M6125 2670 l-30 -8 27 -1 c15 0 30 4 33 9 3 6 5 9 3 9 -2 -1 -16 -5
-33 -9z"/>
<path d="M3422 2439 c-29 -4 -55 -9 -57 -11 -3 -2 6 -31 20 -63 l24 -60 0
-430 c1 -394 -1 -435 -18 -485 -10 -30 -17 -58 -14 -62 6 -11 135 -10 152 1
12 8 13 18 3 61 -7 32 -12 140 -12 284 0 258 0 259 67 272 35 7 64 -18 98 -83
10 -21 41 -68 67 -105 26 -37 48 -71 48 -74 0 -4 11 -22 25 -40 14 -18 25 -38
25 -44 0 -6 9 -21 20 -33 12 -12 23 -33 26 -47 7 -32 18 -56 49 -105 40 -64
84 -172 85 -207 0 -10 4 -18 10 -18 5 0 12 -17 16 -37 4 -21 10 -42 14 -48 4
-5 10 -26 13 -45 19 -117 35 -192 43 -200 6 -6 34 3 74 22 59 29 75 32 179 35
63 1 119 -1 125 -6 11 -8 69 -17 171 -25 43 -3 47 -2 25 8 -14 6 -32 18 -40
26 -8 8 -50 33 -92 54 -125 63 -307 220 -408 350 -68 89 -159 226 -183 276
-12 25 -31 59 -43 75 -11 17 -33 62 -48 100 -16 39 -32 78 -37 87 -5 10 -9 31
-9 48 0 23 7 35 33 50 17 11 42 20 55 20 12 0 22 5 22 10 0 6 7 10 17 10 26 0
100 47 122 78 11 16 28 56 37 90 16 58 16 64 0 116 -10 30 -25 61 -34 69 -34
31 -120 66 -187 78 -78 13 -401 18 -483 8z m302 -24 c48 -6 137 -44 162 -70
29 -29 84 -132 84 -158 0 -37 -45 -121 -81 -152 -33 -27 -95 -47 -149 -49 -19
-1 -40 -4 -46 -8 -11 -7 -77 -3 -126 7 -25 6 -26 10 -32 83 -14 175 -16 277
-6 308 17 49 51 56 194 39z"/>
<path d="M6196 2415 c-3 -9 -6 -236 -7 -506 -1 -359 2 -494 10 -502 26 -26 31
21 29 248 -2 276 6 318 68 382 23 23 53 45 67 48 14 4 28 13 31 22 5 12 10 11
32 -6 15 -11 30 -19 34 -16 4 2 25 -13 47 -35 53 -51 56 -67 57 -380 1 -140 5
-260 9 -267 4 -7 14 -10 22 -6 13 4 15 47 13 292 -3 249 -5 290 -20 320 -10
19 -18 42 -18 52 0 33 -53 76 -102 83 -61 9 -95 -1 -142 -41 -22 -18 -47 -33
-57 -33 -38 0 -44 26 -44 193 0 110 -4 161 -11 164 -6 2 -14 -3 -18 -12z"/>
<path d="M1916 2391 c-8 -13 -26 -185 -26 -251 0 -31 5 -61 10 -66 7 -7 8
-123 2 -345 -5 -216 -4 -344 3 -362 l10 -28 278 2 c301 2 296 1 283 55 -7 27
-7 27 -84 21 -42 -4 -150 -7 -240 -8 -137 -1 -167 2 -189 16 -23 15 -25 21
-19 62 3 25 6 108 6 183 0 160 7 177 78 187 60 8 72 -6 72 -84 0 -78 13 -79
45 -3 31 73 66 89 188 90 72 0 89 3 94 16 3 9 2 24 -4 33 -9 14 -38 16 -219
17 -146 0 -216 4 -231 12 -25 14 -26 25 -25 255 0 110 5 121 63 139 34 10 42
9 59 -7 17 -15 20 -31 20 -95 0 -56 4 -79 13 -83 29 -11 42 11 43 70 1 77 10
103 35 98 32 -6 39 -15 34 -45 -3 -17 -7 -43 -10 -60 -6 -38 15 -40 43 -5 17
22 19 31 10 62 -9 33 -8 39 13 56 18 15 36 18 97 15 79 -3 103 9 89 46 -6 14
-35 16 -271 16 -146 0 -267 -4 -270 -9z"/>
<path d="M2694 2378 c-13 -19 -17 -1009 -4 -1028 7 -11 12 -12 21 -3 13 13 13
1023 0 1036 -5 5 -13 3 -17 -5z"/>
<path d="M4537 2135 c-27 -7 -57 -21 -68 -31 -27 -25 -79 -108 -79 -127 0 -33
35 -16 56 26 26 54 69 78 149 84 54 5 68 2 94 -16 41 -29 62 -75 68 -147 5
-56 4 -61 -20 -77 -14 -9 -48 -22 -74 -28 -26 -7 -57 -15 -68 -20 -11 -5 -46
-15 -77 -24 -108 -30 -148 -87 -148 -208 0 -159 71 -221 212 -184 31 8 74 29
96 47 48 38 72 36 92 -7 26 -56 40 -41 35 35 -3 37 -7 180 -9 319 l-5 251 -27
42 c-15 23 -40 48 -56 56 -42 22 -115 26 -171 9z m205 -372 c25 -22 24 -122
-1 -196 -43 -124 -156 -178 -267 -128 -31 14 -45 28 -53 53 -26 77 -11 155 38
202 22 21 40 28 77 30 27 2 65 11 84 21 33 17 75 32 94 34 5 1 18 -6 28 -16z"/>
<path d="M4567 1653 c-10 -10 -8 -56 3 -73 7 -11 10 -2 10 33 0 48 -1 52 -13
40z"/>
<path d="M5214 2140 c-18 -4 -42 -17 -55 -28 l-23 -22 41 0 c63 0 131 -25 166
-61 l31 -33 3 -290 c2 -160 6 -297 9 -305 4 -11 7 -12 17 -2 9 9 12 87 13 294
0 254 -1 287 -18 332 -24 62 -61 102 -107 115 -20 5 -38 9 -41 9 -3 -1 -19 -4
-36 -9z"/>
<path d="M5765 2139 c-63 -23 -123 -112 -154 -225 -26 -96 -4 -329 38 -413 32
-62 97 -121 135 -122 17 0 40 -2 50 -4 11 -2 25 -1 30 3 6 3 20 8 31 9 25 4
65 33 79 58 6 11 16 25 23 32 15 17 36 119 28 133 -12 19 -31 -7 -49 -64 -18
-56 -45 -86 -102 -113 -32 -16 -38 -16 -89 1 -81 28 -111 65 -131 161 -23 109
-12 340 17 370 5 5 9 16 9 24 0 25 78 90 118 97 60 11 86 10 106 -6 46 -36 75
-71 81 -99 4 -17 10 -31 15 -31 14 0 21 32 9 46 -6 7 -8 17 -5 22 8 13 -45 84
-77 105 -33 21 -123 30 -162 16z"/>
<path d="M6943 2139 c-63 -18 -133 -127 -159 -248 -17 -83 -17 -124 1 -234 23
-142 75 -226 172 -276 73 -38 192 16 254 115 40 65 59 272 35 384 -3 14 -11
48 -16 77 -11 51 -21 67 -87 135 -50 53 -121 70 -200 47z m189 -99 c58 -62 77
-119 85 -251 10 -170 -43 -306 -134 -344 -70 -29 -149 -11 -196 46 -43 51 -61
134 -61 289 0 135 11 183 52 238 20 27 31 32 56 30 l31 -3 5 -220 5 -220 9
120 c11 143 11 178 2 268 -7 59 -5 71 10 89 31 34 80 18 136 -42z"/>
<path d="M5017 2093 c-2 -5 -5 -162 -6 -350 -2 -243 1 -343 9 -348 6 -4 14 -5
17 -2 3 3 5 105 5 226 0 282 18 370 86 428 15 12 23 25 19 29 -4 4 -15 0 -25
-9 -29 -26 -69 -22 -76 8 -6 24 -20 33 -29 18z"/>
<path d="M5740 1914 c0 -5 7 -18 15 -28 12 -16 15 -17 15 -4 0 8 -7 21 -15 28
-8 7 -15 9 -15 4z"/>
<path d="M5183 1875 c0 -22 2 -30 4 -17 2 12 2 30 0 40 -3 9 -5 -1 -4 -23z"/>
<path d="M6333 1790 c0 -25 2 -35 4 -22 2 12 2 32 0 45 -2 12 -4 2 -4 -23z"/>
<path d="M5182 1650 c0 -14 2 -19 5 -12 2 6 2 18 0 25 -3 6 -5 1 -5 -13z"/>
<path d="M7665 1283 c-31 -7 -40 -21 -11 -16 15 3 29 9 32 14 3 5 4 8 2 8 -2
-1 -12 -3 -23 -6z"/>
<path d="M1827 1234 c-11 -4 -16 -12 -12 -27 2 -12 6 -177 9 -366 l5 -343 -25
-23 -25 -23 63 -30 c35 -16 76 -33 93 -37 29 -6 29 -6 11 14 -18 20 -19 39
-13 373 3 227 9 370 17 401 7 26 10 51 6 54 -8 8 -106 13 -129 7z"/>
<path d="M7583 1227 c-17 -27 -10 -34 18 -18 16 9 29 18 29 21 0 11 -40 8 -47
-3z"/>
<path d="M5927 1215 c-7 -16 8 -29 23 -20 10 6 2 35 -10 35 -4 0 -10 -7 -13
-15z"/>
<path d="M4448 1204 c13 -9 26 -13 30 -9 8 8 -17 25 -38 25 -9 0 -6 -6 8 -16z"/>
<path d="M7532 1168 c2 -6 10 -14 18 -16 7 -3 10 0 6 6 -3 6 0 13 6 15 7 3 3
6 -10 6 -14 1 -22 -4 -20 -11z"/>
<path d="M7499 1151 c-29 -29 -96 -86 -124 -106 -16 -11 -42 -31 -59 -45 -17
-14 -39 -32 -50 -40 -10 -8 -33 -27 -50 -41 -17 -14 -69 -49 -116 -78 -47 -28
-94 -57 -105 -64 -11 -7 -38 -24 -60 -38 -80 -51 -402 -219 -420 -219 -3 0
-24 -9 -48 -19 -109 -50 -360 -143 -522 -194 -161 -51 -452 -129 -545 -147
-25 -4 -119 -22 -209 -39 -157 -30 -218 -39 -416 -62 -49 -6 -94 -15 -99 -20
-6 -5 -49 -9 -97 -9 -55 0 -99 -5 -120 -15 -32 -14 -28 -14 89 -14 94 1 124 4
130 15 5 9 31 16 67 19 108 9 319 35 360 45 22 4 74 14 115 20 91 15 330 69
460 105 52 14 110 28 128 32 18 3 35 10 38 14 3 5 13 9 22 9 35 0 479 153 607
210 101 44 294 137 375 181 78 42 321 191 345 211 5 5 35 27 65 49 156 113
270 212 270 235 0 20 -13 22 -31 5z"/>
<path d="M5772 1067 l-2 -92 25 28 c36 40 31 135 -7 150 -12 4 -15 -13 -16
-86z"/>
<path d="M5605 1025 c-21 -18 -24 -23 -10 -18 22 8 50 32 43 38 -2 2 -17 -7
-33 -20z"/>
<path d="M868 974 c61 -55 97 -83 118 -90 11 -3 4 4 -13 16 -18 12 -33 26 -33
31 0 5 -6 9 -14 9 -8 0 -16 4 -18 8 -1 4 -21 21 -43 36 l-40 29 43 -39z"/>
<path d="M1041 842 c73 -56 238 -156 245 -149 2 2 -33 27 -79 57 -45 29 -101
66 -124 82 -45 31 -80 39 -42 10z"/>
<path d="M1372 641 c39 -25 102 -53 88 -39 -9 9 -119 68 -126 68 -5 0 13 -13
38 -29z"/>
<path d="M1490 580 c26 -19 73 -33 64 -19 -3 5 -14 9 -25 9 -10 0 -19 4 -19 9
0 5 -10 11 -22 14 -22 6 -22 6 2 -13z"/>
<path d="M1628 513 c7 -3 16 -2 19 1 4 3 -2 6 -13 5 -11 0 -14 -3 -6 -6z"/>
<path d="M1668 493 c7 -3 16 -2 19 1 4 3 -2 6 -13 5 -11 0 -14 -3 -6 -6z"/>
<path d="M2058 343 c6 -2 18 -2 25 0 6 3 1 5 -13 5 -14 0 -19 -2 -12 -5z"/>
<path d="M2130 320 c0 -5 10 -10 23 -10 18 0 19 2 7 10 -19 13 -30 13 -30 0z"/>
<path d="M2203 293 c9 -2 23 -2 30 0 6 3 -1 5 -18 5 -16 0 -22 -2 -12 -5z"/>
<path d="M2278 273 c7 -3 16 -2 19 1 4 3 -2 6 -13 5 -11 0 -14 -3 -6 -6z"/>
<path d="M2383 243 c9 -2 23 -2 30 0 6 3 -1 5 -18 5 -16 0 -22 -2 -12 -5z"/>
<path d="M2453 223 c9 -2 23 -2 30 0 6 3 -1 5 -18 5 -16 0 -22 -2 -12 -5z"/>
<path d="M2638 173 c7 -3 16 -2 19 1 4 3 -2 6 -13 5 -11 0 -14 -3 -6 -6z"/>
<path d="M2873 123 c9 -2 23 -2 30 0 6 3 -1 5 -18 5 -16 0 -22 -2 -12 -5z"/>
</g>
</svg>
